<?xml version="1.0" encoding="UTF-8" standalone="no"?>
<svg width="72px" height="72px" viewBox="0 0 72 72" version="1.1" xmlns="http://www.w3.org/2000/svg" xmlns:xlink="http://www.w3.org/1999/xlink" xmlns:sketch="http://www.bohemiancoding.com/sketch/ns">
    <!-- Generator: Sketch 3.0.4 (8053) - http://www.bohemiancoding.com/sketch -->
    <title>remove-btn</title>
    <desc>Created with Sketch.</desc>
    <defs></defs>
    <g id="Page-1" stroke="none" stroke-width="1" fill="none" fill-rule="evenodd" sketch:type="MSPage">
        <g id="地圖---初始狀態" sketch:type="MSArtboardGroup" transform="translate(-684.000000, -778.000000)">
            <g id="Oval-96-+-傳統藝術設計概論-2" sketch:type="MSLayerGroup" transform="translate(653.000000, 139.000000)">
                <g id="Oval-96-+-Oval-97-+-Shape" transform="translate(34.000000, 642.000000)" sketch:type="MSShapeGroup">
                    <g id="remove-btn">
                        <ellipse id="Oval-96" stroke="#232323" stroke-width="2" fill-opacity="0.799999952" fill="#363636" cx="33" cy="33" rx="30" ry="30"></ellipse>
                        <g id="Group-3" transform="translate(25.000000, 21.000000)" fill="#FFFFFF">
                            <path d="M13,3 L13,2 C13,0.9 12.1,0 11,0 L6,0 C4.9,0 4,0.9 4,2 L4,3 L0,3 L0,4 L17,4 L17,3 L13,3 L13,3 Z M12,3 L5,3 L5,2 C5,1.4 5.4,1 6,1 L11,1 C11.6,1 12,1.4 12,2 L12,3 L12,3 Z" id="Shape"></path>
                            <rect id="Rectangle-path" x="12" y="8" width="1" height="16"></rect>
                            <rect id="Rectangle-path" x="4" y="8" width="1" height="16"></rect>
                            <rect id="Rectangle-path" x="8" y="8" width="1" height="16"></rect>
                            <path d="M0,24 C0,25.7 1.3,27 3,27 L14,27 C15.7,27 17,25.7 17,24 L17,5 L0,5 L0,24 L0,24 Z M1,6 L16,6 L16,24 C16,25.1 15.1,26 14,26 L3,26 C1.9,26 1,25.1 1,24 L1,6 L1,6 Z" id="Shape"></path>
                        </g>
                        <ellipse id="Oval-97" stroke="#000000" stroke-width="5" opacity="0.200000003" cx="33" cy="33" rx="33" ry="33"></ellipse>
                    </g>
                </g>
            </g>
        </g>
    </g>
</svg>